<svg width="16" height="16" viewBox="0 0 16 16" fill="none" xmlns="http://www.w3.org/2000/svg">
<path d="M13.5 2H2.5C1.39543 2 0.5 2.89543 0.5 4V12C0.5 13.1046 1.39543 14 2.5 14H13.5C14.6046 14 15.5 13.1046 15.5 12V4C15.5 2.89543 14.6046 2 13.5 2Z" fill="#071B65"/>
<path d="M2.5502 2H2.4997C1.5092 2 0.692203 2.722 0.533203 3.667L13.4492 14H13.4997C14.4902 14 15.3072 13.278 15.4662 12.333L2.5502 2Z" fill="white"/>
<path d="M11.125 9.50001H9.875L14.842 13.4735C15.0355 13.297 15.194 13.085 15.3065 12.845L11.125 9.50001Z" fill="#B92932"/>
<path d="M0.693359 3.15449L4.87486 6.49999H6.12486L1.15786 2.52649C0.964359 2.70299 0.805859 2.91449 0.693359 3.15449Z" fill="#B92932"/>
<path d="M2.4997 14H2.5502L15.4662 3.667C15.3072 2.7215 14.4902 2 13.4997 2H13.4492L0.533203 12.333C0.692203 13.2785 1.5092 14 2.4997 14Z" fill="white"/>
<path d="M9.5 2H6.5V14H9.5V2Z" fill="white"/>
<path d="M15.5 6.5H0.5V9.5H15.5V6.5Z" fill="white"/>
<path d="M9 2H7V14H9V2Z" fill="#B92932"/>
<path d="M15.5 9V7L0.5 7V9H15.5Z" fill="#B92932"/>
<path d="M14.111 2.10498L9.5 5.79298V6.49998H9.875L14.8465 2.52998C14.637 2.33798 14.3875 2.19448 14.111 2.10498Z" fill="#B92932"/>
<path d="M1.16406 13.4785C1.37106 13.6655 1.61606 13.8065 1.88756 13.8945L6.50006 10.2045V9.50049H6.12506L1.16406 13.4785Z" fill="#B92932"/>
<path opacity="0.15" d="M13.5 2H2.5C1.3955 2 0.5 2.8955 0.5 4V12C0.5 13.1045 1.3955 14 2.5 14H13.5C14.6045 14 15.5 13.1045 15.5 12V4C15.5 2.8955 14.6045 2 13.5 2ZM15 12C15 12.827 14.327 13.5 13.5 13.5H2.5C1.673 13.5 1 12.827 1 12V4C1 3.173 1.673 2.5 2.5 2.5H13.5C14.327 2.5 15 3.173 15 4V12Z" fill="black"/>
<path opacity="0.2" d="M13.5 2.5H2.5C1.6715 2.5 1 3.1715 1 4V4.5C1 3.6715 1.6715 3 2.5 3H13.5C14.3285 3 15 3.6715 15 4.5V4C15 3.1715 14.3285 2.5 13.5 2.5Z" fill="white"/>
</svg>
