<svg width="32" height="32" viewBox="0 0 32 32" fill="none" xmlns="http://www.w3.org/2000/svg">
<path d="M0 10C0 4.47715 4.47715 0 10 0H22C27.5228 0 32 4.47715 32 10V22C32 27.5228 27.5228 32 22 32H10C4.47715 32 0 27.5228 0 22V10Z" fill="#171717"/>
<path d="M22.0001 22L19.1335 19.1333M20.6667 15.3333C20.6667 18.2789 18.2789 20.6667 15.3333 20.6667C12.3878 20.6667 10 18.2789 10 15.3333C10 12.3878 12.3878 10 15.3333 10C18.2789 10 20.6667 12.3878 20.6667 15.3333Z" stroke="#FAFAFA" stroke-width="1.5" stroke-linecap="round" stroke-linejoin="round"/>
</svg>
