<svg width="121" height="21" viewBox="0 0 121 21" fill="none" xmlns="http://www.w3.org/2000/svg">
<path d="M119.412 16.481C119.138 16.481 118.876 16.4057 118.627 16.2551C118.378 16.117 118.179 15.9224 118.03 15.6714C117.893 15.4204 117.824 15.1568 117.824 14.8806C117.824 14.4162 117.98 14.0334 118.291 13.7321C118.602 13.4309 118.976 13.2803 119.412 13.2803C119.847 13.2803 120.221 13.4309 120.532 13.7321C120.843 14.0334 120.999 14.4162 120.999 14.8806C120.999 15.1568 120.924 15.4204 120.775 15.6714C120.638 15.9224 120.451 16.117 120.215 16.2551C119.978 16.4057 119.71 16.481 119.412 16.481Z" fill="#111827"/>
<path d="M111.617 16.4804C110.72 16.4804 109.892 16.2984 109.133 15.9344C108.386 15.5579 107.788 14.993 107.34 14.2399C106.892 13.4743 106.668 12.514 106.668 11.3593V10.9827C106.668 9.87813 106.88 8.96185 107.303 8.23383C107.739 7.50583 108.318 6.95982 109.04 6.59581C109.762 6.23181 110.559 6.0498 111.43 6.0498C112.986 6.0498 114.169 6.46402 114.978 7.29244C115.787 8.12087 116.192 9.31957 116.192 10.8886V11.9429H109.189C109.214 12.5329 109.338 13.0161 109.563 13.3927C109.799 13.7567 110.098 14.0265 110.459 14.2023C110.82 14.3654 111.206 14.447 111.617 14.447C112.252 14.447 112.731 14.3529 113.055 14.1646C113.378 13.9763 113.609 13.7002 113.746 13.3362H116.005C115.806 14.378 115.314 15.1625 114.53 15.6897C113.746 16.2168 112.775 16.4804 111.617 16.4804ZM111.523 8.08321C111.137 8.08321 110.764 8.14597 110.403 8.27149C110.042 8.39701 109.756 8.62294 109.544 8.94929C109.332 9.26309 109.214 9.68358 109.189 10.2108H113.802C113.789 9.64592 113.677 9.21288 113.466 8.91164C113.266 8.59784 112.999 8.38446 112.663 8.27149C112.326 8.14597 111.947 8.08321 111.523 8.08321Z" fill="#111827"/>
<path d="M95.6641 20.0201V6.27574H97.9424V7.74431C98.1914 7.29244 98.5836 6.89706 99.1189 6.55816C99.6542 6.21926 100.333 6.0498 101.154 6.0498C102.474 6.0498 103.501 6.46402 104.236 7.29244C104.983 8.10832 105.356 9.3384 105.356 10.9827V11.3593C105.356 12.5015 105.182 13.4554 104.833 14.2211C104.497 14.9742 104.018 15.539 103.395 15.9156C102.773 16.2922 102.026 16.4804 101.154 16.4804C100.482 16.4804 99.8846 16.3361 99.3617 16.0474C98.8512 15.7461 98.4342 15.357 98.1105 14.8801V20.0201H95.6641ZM100.576 14.3717C101.223 14.3717 101.764 14.127 102.2 13.6374C102.636 13.1354 102.854 12.376 102.854 11.3593V10.9827C102.854 10.0413 102.642 9.3384 102.219 8.87398C101.808 8.39701 101.26 8.15852 100.576 8.15852C100.115 8.15852 99.6916 8.25266 99.3056 8.44094C98.9321 8.61667 98.6396 8.88653 98.4279 9.25054C98.2163 9.60199 98.1105 10.0539 98.1105 10.6061V11.7358C98.1105 12.3258 98.2101 12.8216 98.4093 13.2232C98.6209 13.6123 98.9135 13.901 99.287 14.0893C99.6605 14.2776 100.09 14.3717 100.576 14.3717Z" fill="#111827"/>
<path d="M88.9293 16.4804C88.0329 16.4804 87.205 16.2984 86.4455 15.9344C85.6985 15.5579 85.101 14.9868 84.6528 14.2211C84.2046 13.4554 83.9805 12.5015 83.9805 11.3593V10.9827C83.9805 9.90324 84.2046 8.9995 84.6528 8.27149C85.101 7.53093 85.6985 6.97865 86.4455 6.61464C87.205 6.23808 88.0329 6.0498 88.9293 6.0498C89.8381 6.0498 90.666 6.23808 91.413 6.61464C92.16 6.97865 92.7576 7.53093 93.2058 8.27149C93.654 8.9995 93.8781 9.90324 93.8781 10.9827V11.3593C93.8781 12.4764 93.654 13.4178 93.2058 14.1834C92.7576 14.9491 92.16 15.5265 91.413 15.9156C90.666 16.2922 89.8381 16.4804 88.9293 16.4804ZM88.9293 14.3717C89.4024 14.3717 89.8194 14.265 90.1805 14.0516C90.554 13.8257 90.8466 13.4868 91.0582 13.0349C91.2698 12.5831 91.3757 12.0245 91.3757 11.3593V10.9827C91.3757 10.3677 91.2698 9.85303 91.0582 9.43882C90.8466 9.02461 90.554 8.71081 90.1805 8.49743C89.8194 8.27149 89.4024 8.15852 88.9293 8.15852C88.4562 8.15852 88.0329 8.27149 87.6594 8.49743C87.2984 8.71081 87.012 9.02461 86.8004 9.43882C86.5887 9.85303 86.4829 10.3677 86.4829 10.9827V11.3593C86.4829 12.0371 86.5887 12.6019 86.8004 13.0538C87.012 13.4931 87.2984 13.8257 87.6594 14.0516C88.0329 14.265 88.4562 14.3717 88.9293 14.3717Z" fill="#111827"/>
<path d="M78.2929 16.4804C77.3841 16.4804 76.5624 16.2922 75.8279 15.9156C75.0933 15.5265 74.5082 14.9554 74.0724 14.2023C73.6491 13.4366 73.4375 12.4889 73.4375 11.3593V10.9827C73.4375 9.90324 73.6616 8.9995 74.1098 8.27149C74.558 7.54348 75.1494 6.9912 75.8839 6.61464C76.6184 6.23808 77.4214 6.0498 78.2929 6.0498C79.2267 6.0498 80.0172 6.2067 80.6646 6.5205C81.312 6.8343 81.81 7.26734 82.1586 7.81962C82.5197 8.37191 82.7251 8.98067 82.7749 9.64592H80.2725C80.1729 9.19406 79.9674 8.83633 79.6562 8.57274C79.3574 8.2966 78.903 8.15852 78.2929 8.15852C77.8696 8.15852 77.4775 8.25894 77.1164 8.45977C76.7678 8.6606 76.4815 8.96812 76.2574 9.38233C76.0457 9.79655 75.9399 10.33 75.9399 10.9827V11.3593C75.9399 12.0622 76.0395 12.6396 76.2387 13.0914C76.4504 13.5307 76.7305 13.8571 77.0791 14.0705C77.4401 14.2713 77.8447 14.3717 78.2929 14.3717C78.7785 14.3717 79.1955 14.2462 79.5441 13.9952C79.9052 13.7316 80.148 13.3613 80.2725 12.8843H82.7749C82.7002 13.5998 82.4636 14.2336 82.0652 14.7859C81.6668 15.3382 81.1377 15.7587 80.4779 16.0474C79.8305 16.3361 79.1022 16.4804 78.2929 16.4804Z" fill="#111827"/>
<path d="M67.6733 16.4804C66.8641 16.4804 66.1856 16.3988 65.6378 16.2357C65.09 16.0599 64.6356 15.8277 64.2745 15.539C63.9259 15.2378 63.6645 14.8989 63.4902 14.5223C63.3284 14.1458 63.2288 13.7504 63.1914 13.3362H65.6565C65.7187 13.6625 65.9117 13.9324 66.2354 14.1458C66.5591 14.3466 67.0384 14.447 67.6733 14.447C68.3954 14.447 68.9121 14.3466 69.2233 14.1458C69.5346 13.945 69.6902 13.6876 69.6902 13.3738C69.6902 13.1479 69.6217 12.9659 69.4848 12.8278C69.3478 12.6772 69.1051 12.5517 68.7565 12.4513C68.4079 12.3383 67.9161 12.2253 67.2812 12.1124C66.7334 12.0371 66.2292 11.9366 65.7685 11.8111C65.3079 11.6731 64.9033 11.4848 64.5547 11.2463C64.2185 11.0078 63.9508 10.7128 63.7516 10.3614C63.5649 9.99738 63.4715 9.55806 63.4715 9.04343C63.4715 8.49115 63.6334 7.98907 63.9571 7.53721C64.2932 7.08534 64.7725 6.72761 65.395 6.46402C66.03 6.18788 66.7894 6.0498 67.6733 6.0498C68.632 6.0498 69.3976 6.20043 69.9703 6.50167C70.543 6.80292 70.9726 7.19203 71.2589 7.669C71.5452 8.14597 71.7195 8.65432 71.7818 9.19406H69.3167C69.2171 8.83005 69.0241 8.55391 68.7378 8.36563C68.4515 8.17735 68.0966 8.08321 67.6733 8.08321C67.0509 8.08321 66.6027 8.18363 66.3288 8.38446C66.0673 8.57274 65.9366 8.81122 65.9366 9.09992C65.9366 9.40116 66.0798 9.63337 66.3661 9.79655C66.6649 9.95972 67.2687 10.1041 68.1776 10.2296C68.7378 10.3049 69.2545 10.4179 69.7276 10.5685C70.2131 10.7066 70.6364 10.8948 70.9974 11.1333C71.3585 11.3718 71.6386 11.6731 71.8378 12.0371C72.0495 12.3885 72.1553 12.8216 72.1553 13.3362C72.1553 13.9512 71.9872 14.4972 71.6511 14.9742C71.3274 15.4386 70.8294 15.8089 70.1571 16.085C69.4972 16.3486 68.6693 16.4804 67.6733 16.4804Z" fill="#111827"/>
<path d="M56.941 16.4804C56.0446 16.4804 55.2167 16.2984 54.4573 15.9344C53.7103 15.5579 53.1127 14.9868 52.6645 14.2211C52.2163 13.4554 51.9922 12.5015 51.9922 11.3593V10.9827C51.9922 9.90324 52.2163 8.9995 52.6645 8.27149C53.1127 7.53093 53.7103 6.97865 54.4573 6.61464C55.2167 6.23808 56.0446 6.0498 56.941 6.0498C57.8498 6.0498 58.6777 6.23808 59.4247 6.61464C60.1717 6.97865 60.7693 7.53093 61.2175 8.27149C61.6657 8.9995 61.8898 9.90324 61.8898 10.9827V11.3593C61.8898 12.4764 61.6657 13.4178 61.2175 14.1834C60.7693 14.9491 60.1717 15.5265 59.4247 15.9156C58.6777 16.2922 57.8498 16.4804 56.941 16.4804ZM56.941 14.3717C57.4141 14.3717 57.8312 14.265 58.1922 14.0516C58.5657 13.8257 58.8583 13.4868 59.0699 13.0349C59.2816 12.5831 59.3874 12.0245 59.3874 11.3593V10.9827C59.3874 10.3677 59.2816 9.85303 59.0699 9.43882C58.8583 9.02461 58.5657 8.71081 58.1922 8.49743C57.8312 8.27149 57.4141 8.15852 56.941 8.15852C56.4679 8.15852 56.0446 8.27149 55.6711 8.49743C55.3101 8.71081 55.0237 9.02461 54.8121 9.43882C54.6004 9.85303 54.4946 10.3677 54.4946 10.9827V11.3593C54.4946 12.0371 54.6004 12.6019 54.8121 13.0538C55.0237 13.4931 55.3101 13.8257 55.6711 14.0516C56.0446 14.265 56.4679 14.3717 56.941 14.3717Z" fill="#111827"/>
<path d="M45.3828 16.2545V6.27574H47.6238V7.76314C47.7607 7.47445 47.9475 7.20458 48.184 6.95354C48.4206 6.7025 48.7131 6.48912 49.0617 6.3134C49.4103 6.13767 49.7963 6.0498 50.2196 6.0498C50.4561 6.0498 50.6553 6.06236 50.8172 6.08746C50.9915 6.11256 51.1035 6.13767 51.1533 6.16277V8.36563C51.0288 8.31542 50.867 8.27149 50.6678 8.23383C50.481 8.18363 50.2258 8.15852 49.9021 8.15852C49.4041 8.15852 48.9995 8.26521 48.6882 8.4786C48.3894 8.69198 48.1716 8.9744 48.0346 9.32585C47.8977 9.66475 47.8292 10.035 47.8292 10.4367V16.2545H45.3828Z" fill="#111827"/>
<path d="M37.6571 16.4811C36.5117 16.4811 35.6464 16.1547 35.0613 15.502C34.4762 14.8368 34.1836 13.8138 34.1836 12.4331V6.27637H36.63V12.0942C36.63 12.8473 36.7732 13.4184 37.0595 13.8075C37.3583 14.1841 37.8563 14.3723 38.5535 14.3723C39.0515 14.3723 39.4499 14.2656 39.7487 14.0523C40.0599 13.8389 40.2902 13.5627 40.4396 13.2238C40.589 12.8849 40.6637 12.5084 40.6637 12.0942V6.27637H43.1288V16.2551H40.8505V14.7677C40.6139 15.2321 40.2342 15.6338 39.7113 15.9727C39.2009 16.3116 38.5161 16.4811 37.6571 16.4811Z" fill="#111827"/>
<path d="M30.7976 16.3677C30.0257 16.3677 29.3908 16.261 28.8928 16.0476C28.3948 15.8217 28.0275 15.4639 27.791 14.9744C27.5669 14.4849 27.4548 13.851 27.4548 13.0728V8.34701H26.1289V6.27594H27.4548V4.0166H29.9012V6.27594H32.2916V8.34701H29.9012V12.6774C29.9012 13.2422 30.0008 13.6502 30.2 13.9012C30.4116 14.1397 30.7976 14.259 31.3578 14.259C31.7313 14.259 32.1048 14.2401 32.4783 14.2025V16.2735C32.2418 16.2986 31.9928 16.3175 31.7313 16.33C31.4823 16.3551 31.1711 16.3677 30.7976 16.3677Z" fill="#111827"/>
<path d="M18.9912 16.4804C18.2816 16.4804 17.6778 16.3486 17.1798 16.085C16.6818 15.8089 16.3021 15.4324 16.0406 14.9554C15.7792 14.4784 15.6484 13.9387 15.6484 13.3362C15.6484 12.332 15.941 11.5789 16.5262 11.0768C17.1237 10.5748 18.0139 10.3237 19.1966 10.3237H22.1472V9.85303C22.1472 9.20033 21.9979 8.74219 21.6991 8.4786C21.4127 8.21501 20.9521 8.08321 20.3171 8.08321C19.7569 8.08321 19.3523 8.18363 19.1033 8.38446C18.8543 8.57274 18.7111 8.81122 18.6737 9.09992H16.2087C16.246 8.52253 16.4266 8.0079 16.7502 7.55603C17.0864 7.09161 17.5595 6.72761 18.1695 6.46402C18.792 6.18788 19.539 6.0498 20.4105 6.0498C21.2571 6.0498 21.9916 6.17532 22.6141 6.42636C23.2491 6.6774 23.7408 7.08534 24.0894 7.65017C24.438 8.20246 24.6123 8.94929 24.6123 9.89069V13.7127C24.6123 14.2399 24.6185 14.7043 24.631 15.106C24.6559 15.4951 24.6932 15.8779 24.743 16.2545H22.446C22.3962 15.9784 22.3651 15.7713 22.3527 15.6332C22.3527 15.4826 22.3527 15.2629 22.3527 14.9742C22.0912 15.3759 21.6804 15.7273 21.1201 16.0286C20.5599 16.3298 19.8503 16.4804 18.9912 16.4804ZM19.7569 14.56C20.1553 14.56 20.535 14.491 20.896 14.3529C21.2695 14.2023 21.5683 13.9763 21.7924 13.6751C22.029 13.3613 22.1472 12.9659 22.1472 12.4889V12.0182H19.6635C19.1904 12.0182 18.8169 12.1312 18.543 12.3571C18.2816 12.5705 18.1509 12.8655 18.1509 13.242C18.1509 13.6437 18.2878 13.9638 18.5617 14.2023C18.8356 14.4408 19.234 14.56 19.7569 14.56Z" fill="#111827"/>
<path d="M0 16.2527V3.07324H2.78254L6.76026 10.4914L10.7193 3.07324H13.4271V16.2527H10.6259V7.87434L7.52592 13.6168H5.86387L2.78254 7.87434V16.2527H0Z" fill="#111827"/>
</svg>
