<svg width="16" height="16" viewBox="0 0 16 16" fill="none" xmlns="http://www.w3.org/2000/svg">
<mask id="path-1-inside-1_5001_1719" fill="white">
<path d="M0 4C0 1.79086 1.79086 0 4 0H12C14.2091 0 16 1.79086 16 4V12C16 14.2091 14.2091 16 12 16H4C1.79086 16 0 14.2091 0 12V4Z"/>
</mask>
<path d="M4 0V1H12V0V-1H4V0ZM16 4H15V12H16H17V4H16ZM12 16V15H4V16V17H12V16ZM0 12H1V4H0H-1V12H0ZM4 16V15C2.34315 15 1 13.6569 1 12H0H-1C-1 14.7614 1.23858 17 4 17V16ZM16 12H15C15 13.6569 13.6569 15 12 15V16V17C14.7614 17 17 14.7614 17 12H16ZM12 0V1C13.6569 1 15 2.34315 15 4H16H17C17 1.23858 14.7614 -1 12 -1V0ZM4 0V-1C1.23858 -1 -1 1.23858 -1 4H0H1C1 2.34315 2.34315 1 4 1V0Z" fill="#171717" mask="url(#path-1-inside-1_5001_1719)"/>
<rect width="14" height="14" transform="translate(1 1)" fill="#171717"/>
<path d="M12.2542 4.0876C12.482 3.8598 12.8512 3.8598 13.0791 4.0876C13.3069 4.31541 13.3069 4.68467 13.0791 4.91247L6.66239 11.3291C6.43459 11.5569 6.06533 11.5569 5.83752 11.3291L2.92085 8.41247C2.69305 8.18467 2.69305 7.81541 2.92085 7.5876C3.14866 7.3598 3.51792 7.3598 3.74572 7.5876L6.24996 10.0918L12.2542 4.0876Z" fill="#FAFAFA"/>
</svg>
