<svg width="16" height="16" viewBox="0 0 16 16" fill="none" xmlns="http://www.w3.org/2000/svg">
<path d="M8.38333 8.93337L5.11667 12.2C4.99444 12.3223 4.83889 12.3834 4.65 12.3834C4.46111 12.3834 4.30556 12.3223 4.18333 12.2C4.06111 12.0778 4 11.9223 4 11.7334C4 11.5445 4.06111 11.3889 4.18333 11.2667L7.45 8.00003L4.18333 4.73337C4.06111 4.61114 4 4.45559 4 4.2667C4 4.07781 4.06111 3.92225 4.18333 3.80003C4.30556 3.67781 4.46111 3.6167 4.65 3.6167C4.83889 3.6167 4.99444 3.67781 5.11667 3.80003L8.38333 7.0667L11.65 3.80003C11.7722 3.67781 11.9278 3.6167 12.1167 3.6167C12.3056 3.6167 12.4611 3.67781 12.5833 3.80003C12.7056 3.92225 12.7667 4.07781 12.7667 4.2667C12.7667 4.45559 12.7056 4.61114 12.5833 4.73337L9.31667 8.00003L12.5833 11.2667C12.7056 11.3889 12.7667 11.5445 12.7667 11.7334C12.7667 11.9223 12.7056 12.0778 12.5833 12.2C12.4611 12.3223 12.3056 12.3834 12.1167 12.3834C11.9278 12.3834 11.7722 12.3223 11.65 12.2L8.38333 8.93337Z" fill="#060716"/>
</svg>
