<svg width="24" height="24" viewBox="0 0 24 24" fill="none" xmlns="http://www.w3.org/2000/svg">
<path d="M0 8C0 3.58172 3.58172 0 8 0H16C20.4183 0 24 3.58172 24 8V16C24 20.4183 20.4183 24 16 24H8C3.58172 24 0 20.4183 0 16V8Z" fill="#171717"/>
<path d="M18.0001 18L15.1335 15.1333M16.6667 11.3333C16.6667 14.2789 14.2789 16.6667 11.3333 16.6667C8.38781 16.6667 6 14.2789 6 11.3333C6 8.38781 8.38781 6 11.3333 6C14.2789 6 16.6667 8.38781 16.6667 11.3333Z" stroke="#FAFAFA" stroke-width="1.5" stroke-linecap="round" stroke-linejoin="round"/>
</svg>
