<svg width="20" height="14" viewBox="0 0 20 14" fill="none" xmlns="http://www.w3.org/2000/svg">
<path d="M17.8585 13.1799C17.5837 13.1799 17.3213 13.105 17.0714 12.955C16.8216 12.8176 16.6217 12.624 16.4718 12.3741C16.3343 12.1242 16.2656 11.8619 16.2656 11.587C16.2656 11.1248 16.4218 10.7437 16.7341 10.4439C17.0465 10.1441 17.4213 9.99414 17.8585 9.99414C18.2958 9.99414 18.6706 10.1441 18.9829 10.4439C19.2952 10.7437 19.4514 11.1248 19.4514 11.587C19.4514 11.8619 19.3765 12.1242 19.2265 12.3741C19.0891 12.624 18.9017 12.8176 18.6643 12.955C18.427 13.105 18.1584 13.1799 17.8585 13.1799Z" fill="#0A0A0A"/>
<path d="M0 13.1179V0H2.79225L6.78385 7.38353L10.7567 0H13.474V13.1179H10.663V4.77868L7.55219 10.4944H5.88433L2.79225 4.77868V13.1179H0Z" fill="#0A0A0A"/>
</svg>
