<svg width="20" height="20" viewBox="0 0 20 20" fill="none" xmlns="http://www.w3.org/2000/svg">
<path d="M15.8333 11.6663C15.8333 8.44468 13.2217 5.83301 10 5.83301C6.77834 5.83301 4.16667 8.44468 4.16667 11.6663C4.16667 14.888 6.77834 17.4997 10 17.4997C13.2217 17.4997 15.8333 14.888 15.8333 11.6663ZM11.9108 8.57715C12.2362 8.25171 12.7638 8.25171 13.0892 8.57715C13.4146 8.90259 13.4146 9.4301 13.0892 9.75553L10.5892 12.2555C10.2638 12.581 9.73624 12.581 9.41081 12.2555C9.08537 11.9301 9.08537 11.4026 9.41081 11.0771L11.9108 8.57715ZM11.6667 0.833008C12.1269 0.833008 12.5 1.2061 12.5 1.66634C12.5 2.12658 12.1269 2.49967 11.6667 2.49967H8.33333C7.8731 2.49967 7.5 2.12658 7.5 1.66634C7.5 1.2061 7.8731 0.833008 8.33333 0.833008H11.6667ZM17.5 11.6663C17.5 15.8085 14.1421 19.1663 10 19.1663C5.85786 19.1663 2.5 15.8085 2.5 11.6663C2.5 7.52421 5.85786 4.16634 10 4.16634C14.1421 4.16634 17.5 7.52421 17.5 11.6663Z" fill="#737373"/>
</svg>
