<svg width="16" height="18" viewBox="0 0 16 18" fill="none" xmlns="http://www.w3.org/2000/svg">
<g clip-path="url(#clip0_23041_53496)">
<path d="M8.00153 2.66699C8.21312 2.66699 8.4123 2.76761 8.53799 2.93783C8.66351 3.10794 8.70103 3.32755 8.6389 3.52962C8.5319 3.87712 8.52134 4.2477 8.60895 4.60059C8.69659 4.95338 8.8786 5.27583 9.13565 5.53288C9.39269 5.78992 9.71515 5.97194 10.0679 6.05957C10.4208 6.14718 10.7914 6.13662 11.1389 6.02962C11.3749 5.95707 11.6316 6.02106 11.8062 6.19564C11.9808 6.37022 12.0448 6.62698 11.9722 6.86296C11.8652 7.21045 11.8547 7.58104 11.9423 7.93392C12.0299 8.28671 12.2119 8.60917 12.469 8.86621C12.726 9.12325 13.0485 9.30527 13.4013 9.3929C13.7542 9.48051 14.1247 9.46995 14.4722 9.36296C14.6743 9.30083 14.8939 9.33835 15.064 9.46387C15.2342 9.58955 15.3349 9.78874 15.3349 10.0003C15.3349 11.4507 14.905 12.8686 14.0992 14.0745C13.2934 15.2805 12.1481 16.2207 10.8082 16.7757C9.4683 17.3307 7.99361 17.4759 6.57119 17.193C5.14867 16.9101 3.84157 16.2115 2.81599 15.1859C1.7904 14.1603 1.09178 12.8532 0.808824 11.4307C0.525963 10.0082 0.671146 8.53356 1.22614 7.19369C1.78119 5.85376 2.7214 4.70844 3.92731 3.90267C5.13326 3.0969 6.55117 2.66699 8.00153 2.66699ZM7.21833 4.05241C6.30943 4.17209 5.43624 4.49823 4.6682 5.01139C3.68157 5.67064 2.9127 6.60784 2.45856 7.7041C2.00444 8.80046 1.88526 10.007 2.11677 11.1709C2.34828 12.3348 2.91958 13.4041 3.75869 14.2432C4.5978 15.0823 5.66708 15.6536 6.83096 15.8851C7.99485 16.1166 9.2014 15.9974 10.2978 15.5433C11.394 15.0892 12.3312 14.3203 12.9905 13.3337C13.5037 12.5655 13.8292 11.692 13.9488 10.7829C13.6576 10.7886 13.3656 10.758 13.0803 10.6872C12.4922 10.5412 11.9548 10.2374 11.5263 9.80892C11.0978 9.38042 10.794 8.84302 10.648 8.25488C10.5823 7.99025 10.5515 7.71974 10.5517 7.44954C10.2817 7.44967 10.0114 7.41948 9.74697 7.35384C9.15884 7.20783 8.62144 6.90409 8.19294 6.47559C7.76444 6.04709 7.4607 5.50969 7.31468 4.92155C7.24382 4.63608 7.21256 4.3438 7.21833 4.05241ZM6.6682 13.3402V13.3337C6.6682 12.9655 6.96668 12.667 7.33487 12.667C7.70306 12.667 8.00153 12.9655 8.00153 13.3337V13.3402C8.00153 13.7084 7.70306 14.0068 7.33487 14.0068C6.96668 14.0068 6.6682 13.7084 6.6682 13.3402ZM10.0015 12.3402V12.3337C10.0015 11.9655 10.3 11.667 10.6682 11.667C11.0364 11.667 11.3349 11.9655 11.3349 12.3337V12.3402C11.3349 12.7084 11.0364 13.0068 10.6682 13.0068C10.3 13.0068 10.0015 12.7084 10.0015 12.3402ZM4.00153 11.3402V11.3337C4.00153 10.9655 4.30001 10.667 4.6682 10.667C5.03639 10.667 5.33487 10.9655 5.33487 11.3337V11.3402C5.33487 11.7084 5.03639 12.0068 4.6682 12.0068C4.30001 12.0068 4.00153 11.7084 4.00153 11.3402ZM7.33487 10.0068V10.0003C7.33487 9.63214 7.63334 9.33366 8.00153 9.33366C8.36972 9.33366 8.6682 9.63214 8.6682 10.0003V10.0068C8.6682 10.375 8.36972 10.6735 8.00153 10.6735C7.63334 10.6735 7.33487 10.375 7.33487 10.0068ZM5.00153 7.6735V7.66699C5.00153 7.2988 5.30001 7.00033 5.6682 7.00033C6.03639 7.00033 6.33487 7.2988 6.33487 7.66699V7.6735C6.33487 8.04169 6.03639 8.34017 5.6682 8.34017C5.30001 8.34017 5.00153 8.04169 5.00153 7.6735Z" fill="#0A0A0A"/>
</g>
<defs>
<clipPath id="clip0_23041_53496">
<rect width="16" height="16" fill="white" transform="translate(0 2)"/>
</clipPath>
</defs>
</svg>
