<svg width="20" height="20" viewBox="0 0 20 20" fill="none" xmlns="http://www.w3.org/2000/svg">
<path d="M12.2834 0.924433C13.4499 0.711935 14.6536 0.860399 15.7339 1.34924L15.3896 2.1077L15.9797 2.69771L12.8457 5.83085L12.8433 5.83247L14.1649 7.15409L17.3013 4.01851C17.4947 3.82534 17.7705 3.73925 18.0394 3.7882C18.3085 3.83724 18.5369 4.01507 18.6497 4.26428C19.1386 5.34452 19.2862 6.5483 19.0737 7.7148C18.8612 8.88131 18.2984 9.95577 17.46 10.7942C16.6215 11.6327 15.5471 12.1954 14.3805 12.408C13.4076 12.5853 12.4092 12.5109 11.4777 12.198L6.10417 17.5724C5.61638 18.0601 4.95476 18.3341 4.26497 18.3341C3.57519 18.3341 2.91354 18.0601 2.42578 17.5724C1.93803 17.0846 1.6641 16.423 1.66406 15.7332C1.66406 15.0434 1.93808 14.3818 2.42578 13.894L7.79932 8.51965C7.48671 7.58848 7.41296 6.59021 7.59017 5.61763C7.80274 4.4511 8.3655 3.37665 9.20394 2.5382C10.0424 1.69981 11.1169 1.13697 12.2834 0.924433ZM15.7339 1.34924C15.983 1.46206 16.1609 1.68974 16.21 1.95878C16.259 2.22788 16.1731 2.50429 15.9797 2.69771L15.3896 2.1077L15.7339 1.34924ZM3.33073 15.7332C3.33076 15.981 3.42898 16.2188 3.60417 16.394C3.77936 16.5692 4.01722 16.6674 4.26497 16.6674C4.51273 16.6674 4.75056 16.5691 4.92578 16.394L10.6842 10.6355L10.7819 10.5517C11.0216 10.3765 11.3405 10.3405 11.6169 10.4654C12.3885 10.8146 13.2486 10.9208 14.0819 10.769C14.915 10.6172 15.6819 10.2146 16.2808 9.61584C16.8797 9.01693 17.2821 8.2494 17.4339 7.41613C17.5073 7.01348 17.5191 6.60484 17.4738 6.20275L15.3319 8.34468C15.0203 8.65006 14.6011 8.82157 14.1649 8.82157C13.7832 8.8215 13.4148 8.69027 13.12 8.45292L12.9987 8.34468L12.9922 8.33898L11.6592 7.00598L11.6535 6.99946C11.3482 6.68798 11.1767 6.26942 11.1766 5.83329C11.1766 5.39703 11.3481 4.97784 11.6535 4.66629L13.7954 2.52355C13.3934 2.47824 12.9846 2.4909 12.582 2.56424C11.7488 2.71607 10.9812 3.11849 10.3823 3.7174C9.78361 4.31622 9.38182 5.08324 9.22998 5.91629C9.07816 6.74957 9.18352 7.60964 9.53272 8.3813C9.67565 8.69729 9.60787 9.06868 9.36263 9.31392L3.60417 15.0724C3.42902 15.2476 3.33073 15.4854 3.33073 15.7332Z" fill="#C2410C"/>
</svg>
