<svg width="20" height="20" viewBox="0 0 20 20" fill="none" xmlns="http://www.w3.org/2000/svg">
<path d="M16.668 10.833C16.668 10.3728 16.2949 9.99967 15.8346 9.99967H4.16797C3.70773 9.99967 3.33464 10.3728 3.33464 10.833V16.6663C3.33464 17.1266 3.70773 17.4997 4.16797 17.4997H15.8346C16.2949 17.4997 16.668 17.1266 16.668 16.6663V10.833ZM13.3346 5.83301C13.3346 4.94895 12.9832 4.10136 12.3581 3.47624C11.733 2.85112 10.8854 2.49967 10.0013 2.49967C9.11725 2.49967 8.26965 2.85112 7.64453 3.47624C7.01941 4.10136 6.66797 4.94895 6.66797 5.83301V8.33301H13.3346V5.83301ZM15.0013 8.33301H15.8346C17.2153 8.33301 18.3346 9.4523 18.3346 10.833V16.6663C18.3346 18.0471 17.2153 19.1663 15.8346 19.1663H4.16797C2.78726 19.1663 1.66797 18.0471 1.66797 16.6663V10.833C1.66797 9.4523 2.78726 8.33301 4.16797 8.33301H5.0013V5.83301C5.0013 4.50693 5.52846 3.23553 6.46615 2.29785C7.40383 1.36017 8.67522 0.833008 10.0013 0.833008C11.3274 0.833008 12.5988 1.36017 13.5365 2.29785C14.4741 3.23553 15.0013 4.50693 15.0013 5.83301V8.33301Z" fill="#C2410C"/>
</svg>
