<svg width="60" height="60" viewBox="0 0 60 60" fill="none" xmlns="http://www.w3.org/2000/svg">
<path d="M12.1435 27.4127C12.6058 26.1119 14.0359 25.4321 15.3369 25.8941C16.6378 26.3563 17.3175 27.7864 16.8554 29.0875L9.11129 50.8917L30.9155 43.1695C32.217 42.7085 33.6454 43.389 34.1064 44.6905C34.5672 45.9917 33.8864 47.4202 32.5854 47.8814L5.83492 57.3565C4.92654 57.6783 3.91384 57.4494 3.23238 56.7681C2.55091 56.0861 2.32134 55.0717 2.644 54.1632L12.1435 27.4127Z" fill="black"/>
<path d="M10.0244 5C11.4051 5 12.5244 6.11929 12.5244 7.5C12.5244 8.88071 11.4051 10 10.0244 10H10C8.61929 10 7.5 8.88071 7.5 7.5C7.5 6.11929 8.61929 5 10 5H10.0244Z" fill="black"/>
<path d="M55.0244 17.5C56.4051 17.5 57.5244 18.6193 57.5244 20C57.5244 21.3807 56.4051 22.5 55.0244 22.5H55C53.6193 22.5 52.5 21.3807 52.5 20C52.5 18.6193 53.6193 17.5 55 17.5H55.0244Z" fill="black"/>
<path d="M37.5244 2.5C38.9051 2.5 40.0244 3.61929 40.0244 5C40.0244 6.38071 38.9051 7.5 37.5244 7.5H37.5C36.1193 7.5 35 6.38071 35 5C35 3.61929 36.1193 2.5 37.5 2.5H37.5244Z" fill="black"/>
<path d="M55.0244 47.5C56.4051 47.5 57.5244 48.6193 57.5244 50C57.5244 51.3807 56.4051 52.5 55.0244 52.5H55C53.6193 52.5 52.5 51.3807 52.5 50C52.5 48.6193 53.6193 47.5 55 47.5H55.0244Z" fill="black"/>
<path d="M54.2059 2.62944C55.5151 2.19124 56.9316 2.8974 57.37 4.20659C57.8082 5.5158 57.102 6.93231 55.7928 7.37065L50.1922 9.24565L50.1898 9.2481C49.1456 9.59591 48.2534 10.2938 47.6678 11.2256C47.1554 12.0413 46.906 12.9917 46.9452 13.9478L46.9818 14.3873C47.4016 18.0021 44.5882 21.25 40.8734 21.25H39.9237C38.9446 21.2504 38.1503 21.926 37.9803 22.8174L37.9779 22.837L37.4505 25.4859C37.1821 26.8402 35.8678 27.7195 34.5135 27.4512C33.1592 27.1828 32.2799 25.8685 32.5482 24.5142L33.0706 21.8824H33.0682C33.6983 18.5744 36.6035 16.2504 39.9237 16.25H40.8734C41.5583 16.25 42.0956 15.6482 42.016 14.9634V14.961C41.7375 12.7301 42.2381 10.4712 43.4344 8.56694C44.6364 6.65364 46.4665 5.21607 48.6102 4.502V4.50444L54.2059 2.62944Z" fill="black"/>
<path d="M45.5371 34.0162C46.1893 30.3091 49.9924 28.0593 53.5278 29.2262L53.8696 29.3507L53.8843 29.3556L55.9326 30.1808C57.2133 30.6962 57.8344 32.152 57.3193 33.4327C56.804 34.7134 55.3481 35.3344 54.0674 34.8195L52.0215 33.9967C51.3519 33.7386 50.5879 34.1634 50.4614 34.8829L50.459 34.8805C49.974 37.83 47.4096 40.0001 44.4238 40.0001H42.5C41.1193 40.0001 40.0001 38.8808 40 37.5001C40 36.1194 41.1193 35.0001 42.5 35.0001H44.4238C44.9732 35.0001 45.4464 34.5908 45.5298 34.0626L45.5371 34.0162Z" fill="black"/>
<path d="M20 17.4999V15.5761C20 12.6304 22.1309 10.0056 25.1172 9.5385L25.3735 9.46037C25.9308 9.22052 26.2278 8.56737 26.0059 7.98332L25.1807 5.93254C24.6657 4.65183 25.2867 3.19598 26.5674 2.68059C27.8481 2.1656 29.3039 2.78665 29.8193 4.06731L30.6445 6.11565L30.6494 6.1303C32.0837 9.75827 29.8105 13.7895 25.9839 14.4628C25.9575 14.4675 25.9298 14.4712 25.9033 14.475C25.4313 14.5426 25 14.998 25 15.5761V17.4999C25 18.8806 23.8807 19.9999 22.5 19.9999C21.1193 19.9999 20 18.8806 20 17.4999Z" fill="black"/>
<path d="M17.1344 24.2272C18.4533 24.2192 19.83 24.5635 21.1481 25.0914C23.7933 26.151 26.6754 28.1383 29.2682 30.7311C31.861 33.3239 33.8482 36.206 34.9079 38.8512C35.4358 40.1692 35.7801 41.546 35.7721 42.8649C35.7639 44.1992 35.385 45.6519 34.2682 46.7687C33.1514 47.8855 31.6987 48.2644 30.3644 48.2726C29.0455 48.2806 27.6687 47.9363 26.3507 47.4083C23.7055 46.3487 20.8234 44.3615 18.2306 41.7687C15.6378 39.1759 13.6505 36.2938 12.591 33.6486C12.063 32.3305 11.7187 30.9538 11.7267 29.6349C11.7349 28.3006 12.1138 26.8479 13.2306 25.7311L13.6652 25.3478C14.7094 24.5266 15.9667 24.2343 17.1344 24.2272ZM17.1637 29.2272C16.9498 29.2286 16.832 29.2565 16.7755 29.276C16.756 29.3325 16.7281 29.4503 16.7267 29.6642C16.7238 30.1295 16.8541 30.8444 17.2321 31.7882C17.985 33.6679 19.5361 35.999 21.7682 38.2311C24.0003 40.4632 26.3314 42.0143 28.2111 42.7672C29.155 43.1452 29.8698 43.2754 30.3351 43.2726C30.5472 43.2712 30.6638 43.2409 30.7208 43.2213C30.7404 43.1643 30.7707 43.0477 30.7721 42.8356C30.775 42.3703 30.6447 41.6555 30.2667 40.7116C29.5138 38.8319 27.9627 36.5008 25.7306 34.2687C23.4985 32.0366 21.1674 30.4855 19.2877 29.7326C18.3439 29.3546 17.629 29.2243 17.1637 29.2272Z" fill="black"/>
</svg>