<svg width="60" height="60" viewBox="0 0 60 60" fill="none" xmlns="http://www.w3.org/2000/svg">
<path d="M36.854 2.77427C40.3536 2.13678 43.9648 2.58217 47.2056 4.04869L46.1729 6.32408L47.9429 8.0941L38.541 17.4935L38.5337 17.4984L42.4985 21.4632L51.9077 12.0565C52.4879 11.477 53.3153 11.2187 54.1221 11.3656C54.9294 11.5127 55.6148 12.0462 55.9531 12.7938C57.4196 16.0345 57.8626 19.6459 57.2251 23.1454C56.5875 26.6449 54.899 29.8683 52.3838 32.3837C49.8684 34.899 46.6451 36.5873 43.1455 37.225C40.2267 37.7568 37.2314 37.5338 34.437 36.5951L18.3164 52.7181C16.8531 54.1812 14.8682 55.0033 12.7988 55.0033C10.7295 55.0031 8.74452 54.1814 7.28125 52.7181C5.818 51.2548 4.99619 49.2699 4.99609 47.2006C4.99609 45.1312 5.81814 43.1463 7.28125 41.683L23.4019 25.5599C22.464 22.7664 22.2428 19.7716 22.7744 16.8539C23.4121 13.3543 25.1004 10.1309 27.6157 7.61558C30.1311 5.10041 33.3545 3.4119 36.854 2.77427ZM47.2056 4.04869C47.9528 4.38717 48.4867 5.07021 48.6338 5.8773C48.7808 6.68463 48.5231 7.51384 47.9429 8.0941L46.1729 6.32408L47.2056 4.04869ZM9.99609 47.2006C9.99619 47.9439 10.2908 48.6574 10.8164 49.183C11.342 49.7086 12.0556 50.0031 12.7988 50.0033C13.5421 50.0033 14.2556 49.7084 14.7813 49.183L32.0566 31.9076L32.3496 31.6561C33.0686 31.1306 34.0253 31.0223 34.8545 31.3973C37.1695 32.4449 39.7497 32.7634 42.2495 32.308C44.7489 31.8525 47.0496 30.6448 48.8462 28.8485C50.6429 27.0518 51.8502 24.7492 52.3057 22.2494C52.5257 21.0414 52.5613 19.8155 52.4253 18.6092L45.9995 25.035C45.0649 25.9512 43.8073 26.4657 42.4985 26.4657C41.3534 26.4655 40.2482 26.0718 39.3638 25.3597L39 25.035L38.9805 25.0179L34.9814 21.0189L34.9644 20.9994C34.0485 20.0649 33.5339 18.8093 33.5337 17.5008C33.5337 16.1921 34.0482 14.9345 34.9644 13.9999L41.3901 7.57164C40.184 7.43569 38.9578 7.47367 37.75 7.69371C35.2502 8.14918 32.9476 9.35644 31.1509 11.1532C29.3547 12.9496 28.1494 15.2507 27.6938 17.7499C27.2384 20.2497 27.5545 22.8299 28.6021 25.1449C29.0309 26.0928 28.8275 27.207 28.0918 27.9427L10.8164 45.2181C10.291 45.7438 9.99609 46.4573 9.99609 47.2006Z" fill="#C2410C"/>
</svg>
