<svg width="60" height="60" viewBox="0 0 60 60" fill="none" xmlns="http://www.w3.org/2000/svg">
<path d="M35 52.5V40H25V52.5C25 53.8807 23.8807 55 22.5 55C21.1193 55 20 53.8807 20 52.5V40C20 38.6739 20.5272 37.4025 21.4648 36.4648C22.4025 35.5272 23.6739 35 25 35H35C36.3261 35 37.5975 35.5272 38.5352 36.4648C39.4728 37.4025 40 38.6739 40 40V52.5C40 53.8807 38.8807 55 37.5 55C36.1193 55 35 53.8807 35 52.5Z" fill="black"/>
<path d="M42.5005 2.5C43.7218 2.49971 44.924 2.79885 46.0039 3.36914C47.0843 3.93969 48.0108 4.76463 48.6993 5.77393H48.6968L55.9136 16.2231C57.1648 18.001 57.7101 20.1815 57.4419 22.3389C57.1735 24.4965 56.1122 26.4782 54.4634 27.8955C52.8147 29.3127 50.6968 30.0659 48.5235 30.0073C46.3656 29.9491 44.3057 29.0942 42.7398 27.6099C42.729 27.5999 42.7162 27.5907 42.7056 27.5806C42.6498 27.5275 42.5751 27.4976 42.4981 27.4976C42.4212 27.4978 42.3461 27.5274 42.2906 27.5806L42.2881 27.583C40.6607 29.1353 38.4972 30.0024 36.2481 30.0024C33.9994 30.0022 31.8377 29.1351 30.2105 27.583H30.208C30.1522 27.5297 30.0777 27.5 30.0005 27.5C29.9233 27.5 29.8488 27.5296 29.793 27.583H29.7906C28.163 29.1362 26.0003 30.0024 23.7505 30.0024C21.5007 30.0024 19.3381 29.1362 17.7105 27.583L17.7056 27.5806C17.6498 27.5275 17.5751 27.4976 17.4981 27.4976C17.4212 27.4978 17.3461 27.5274 17.2906 27.5806L17.2881 27.583C15.7161 29.0831 13.6425 29.9448 11.4703 30C9.29844 30.0552 7.18371 29.3011 5.53763 27.8833C3.89138 26.465 2.83074 24.4832 2.564 22.3267C2.29843 20.1779 2.84087 18.0084 4.08256 16.2354H4.08011L11.3042 5.77393C11.9903 4.76818 12.9115 3.94442 13.9873 3.37402C15.0696 2.80035 16.2756 2.49983 17.5005 2.5H42.5005ZM17.5005 7.5C17.0923 7.49992 16.6894 7.59937 16.3286 7.79053C15.9678 7.98185 15.6593 8.26052 15.4302 8.59863L15.418 8.61572L8.19632 19.0747L8.18168 19.0942C7.64554 19.8557 7.41306 20.7897 7.52738 21.7139C7.64171 22.6377 8.09429 23.4865 8.79935 24.0942C9.50486 24.7021 10.4124 25.0261 11.3433 25.0024C12.2738 24.9788 13.1624 24.6096 13.836 23.9673C14.822 23.0243 16.1337 22.4978 17.4981 22.4976C18.8637 22.4976 20.1786 23.0254 21.1651 23.9697H21.1626C21.8599 24.6341 22.7873 25.0024 23.7505 25.0024C24.7143 25.0024 25.641 24.6324 26.3384 23.9673L26.7217 23.6353C27.6523 22.9024 28.8062 22.5 30.0005 22.5C31.3636 22.5 32.6743 23.0238 33.6602 23.9648C34.3574 24.6299 35.2846 25.0022 36.2481 25.0024C37.212 25.0024 38.1409 24.6301 38.8384 23.9648C39.8241 23.0234 41.1348 22.4978 42.4981 22.4976C43.768 22.4976 44.9892 22.9584 45.9478 23.7817C46.0227 23.8388 46.0954 23.9006 46.1651 23.9673C46.8378 24.6118 47.7264 24.9821 48.6578 25.0073C49.5892 25.0325 50.4975 24.7114 51.2041 24.104C51.9105 23.4968 52.3657 22.6479 52.481 21.7236C52.596 20.7991 52.3627 19.8635 51.8267 19.1016L51.812 19.082V19.0796L44.5757 8.60352L44.5684 8.59131C44.339 8.25506 44.0298 7.9807 43.67 7.79053C43.4001 7.648 43.1069 7.55638 42.8057 7.51953L42.5005 7.5H17.5005Z" fill="black"/>
<path d="M7.5 47.4995V27.375C7.5 25.9943 8.61929 24.875 10 24.875C11.3807 24.875 12.5 25.9943 12.5 27.375V47.4995C12.5 48.1624 12.7637 48.7983 13.2324 49.2671C13.7013 49.7359 14.337 49.9995 15 49.9995H45C45.663 49.9995 46.2987 49.7359 46.7676 49.2671C47.2363 48.7983 47.5 48.1624 47.5 47.4995V27.375C47.5 25.9943 48.6193 24.875 50 24.875C51.3807 24.875 52.5 25.9943 52.5 27.375V47.4995C52.5 49.4885 51.7091 51.3957 50.3027 52.8022C48.8962 54.2088 46.9891 54.9995 45 54.9995H15C13.0109 54.9995 11.1038 54.2088 9.69727 52.8022C8.2909 51.3957 7.5 49.4885 7.5 47.4995Z" fill="black"/>
</svg>