<svg width="60" height="60" viewBox="0 0 60 60" fill="none" xmlns="http://www.w3.org/2000/svg">
<path d="M35 45C35 44.337 34.7364 43.7013 34.2676 43.2324C33.7987 42.7636 33.163 42.5 32.5 42.5H27.5C26.837 42.5 26.2013 42.7636 25.7324 43.2324C25.2636 43.7013 25 44.337 25 45V52.5H35V45ZM19.5728 7.5C19.243 7.49977 18.9154 7.56389 18.6108 7.69043C18.3064 7.817 18.0303 8.00348 17.7979 8.23731L11.0352 15H48.9648L42.2022 8.23731C41.9697 8.00348 41.6936 7.817 41.3892 7.69043C41.0846 7.56389 40.7571 7.49977 40.4272 7.5H19.5728ZM52.5 20H7.5V25C7.5 25.663 7.76358 26.2987 8.23242 26.7676C8.68683 27.222 9.29808 27.4795 9.93897 27.4951C10.8307 27.4299 11.6806 27.0878 12.3657 26.5112L12.5098 26.3989C13.2342 25.8754 14.1062 25.5933 15 25.5933C15.7823 25.5933 16.5475 25.8085 17.2119 26.2134L17.4902 26.3989L17.6343 26.5112C18.3038 27.0746 19.1306 27.414 20 27.4902C20.8694 27.414 21.6962 27.0746 22.3657 26.5112L22.5098 26.3989C23.2342 25.8754 24.1062 25.5933 25 25.5933C25.7823 25.5933 26.5475 25.8085 27.2119 26.2134L27.4902 26.3989L27.6343 26.5112C28.3038 27.0746 29.1306 27.414 30 27.4902C30.8694 27.414 31.6962 27.0746 32.3657 26.5112L32.5098 26.3989C33.2342 25.8754 34.1062 25.5933 35 25.5933C35.7823 25.5933 36.5475 25.8085 37.2119 26.2134L37.4902 26.3989L37.6343 26.5112C38.3038 27.0746 39.1306 27.414 40 27.4902C40.8694 27.414 41.6962 27.0746 42.3657 26.5112L42.5098 26.3989C43.2342 25.8754 44.1062 25.5933 45 25.5933C45.7823 25.5933 46.5475 25.8085 47.2119 26.2134L47.4902 26.3989L47.6343 26.5112C48.3188 27.0872 49.1677 27.4294 50.0586 27.4951C50.7004 27.4801 51.3126 27.2226 51.7676 26.7676C52.2364 26.2987 52.5 25.663 52.5 25V20ZM40 52.5H45C45.663 52.5 46.2987 52.2364 46.7676 51.7676C47.2364 51.2987 47.5 50.663 47.5 50V32.0459C46.6108 31.7553 45.7667 31.3356 45 30.7886C43.5773 31.8036 41.8919 32.3985 40.1367 32.4951C40.0456 32.5001 39.9544 32.5001 39.8633 32.4951C38.1082 32.3985 36.4227 31.8036 35 30.7886C33.5773 31.8036 31.8919 32.3985 30.1367 32.4951C30.0456 32.5001 29.9544 32.5001 29.8633 32.4951C28.1082 32.3985 26.4227 31.8036 25 30.7886C23.5773 31.8036 21.8918 32.3985 20.1367 32.4951C20.0456 32.5001 19.9544 32.5001 19.8633 32.4951C18.1082 32.3985 16.4227 31.8036 15 30.7886C14.2333 31.3356 13.3892 31.7553 12.5 32.0459V50C12.5 50.663 12.7636 51.2987 13.2324 51.7676C13.7013 52.2364 14.337 52.5 15 52.5H20V45C20 43.0109 20.7907 41.1038 22.1973 39.6973C23.6038 38.2907 25.5109 37.5 27.5 37.5H32.5C34.4891 37.5 36.3962 38.2907 37.8027 39.6973C39.2093 41.1038 40 43.0109 40 45V52.5ZM57.5 25C57.5 26.9891 56.7093 28.8962 55.3027 30.3027C54.5051 31.1004 53.5435 31.6911 52.5 32.0605V50C52.5 51.9891 51.7093 53.8962 50.3027 55.3027C48.8962 56.7093 46.9891 57.5 45 57.5H15C13.0109 57.5 11.1038 56.7093 9.69727 55.3027C8.29074 53.8962 7.5 51.9891 7.5 50V32.0605C6.45652 31.6911 5.49493 31.1004 4.69727 30.3027C3.29074 28.8962 2.5 26.9891 2.5 25V17.5C2.5 16.837 2.76358 16.2013 3.23242 15.7324L14.2578 4.70703C14.9544 4.00782 15.7829 3.45244 16.6943 3.07373C17.6074 2.69449 18.5865 2.50189 19.5752 2.50244V2.5H40.4248V2.50244C41.4135 2.50189 42.3926 2.69449 43.3057 3.07373C44.2171 3.45244 45.0456 4.00782 45.7422 4.70703L56.7676 15.7324C57.2364 16.2013 57.5 16.837 57.5 17.5V25Z" fill="#C2410C"/>
</svg>
