<svg width="61" height="60" viewBox="0 0 61 60" fill="none" xmlns="http://www.w3.org/2000/svg">
<path d="M38.8701 23.2325C39.8627 22.2562 41.4716 22.2562 42.4642 23.2325C43.4567 24.2088 43.4567 25.7913 42.4642 26.7676L32.2975 36.7676C31.3049 37.7439 29.696 37.7439 28.7034 36.7676C27.7108 35.7913 27.7108 34.2088 28.7034 33.2325L38.8701 23.2325Z" fill="black"/>
<path d="M53.3753 34.9988C53.3753 31.0494 52.3175 27.1691 50.3099 23.7488C48.3023 20.3286 45.415 17.4886 41.9378 15.5139C38.4603 13.539 34.5158 12.4988 30.5003 12.4988C26.4848 12.4988 22.5403 13.539 19.0628 15.5139C15.5856 17.4886 12.6983 20.3286 10.6907 23.7488C8.6832 27.1691 7.62532 31.0494 7.62533 34.9988C7.62548 38.9482 8.68305 42.8285 10.6907 46.2488C11.3926 47.4445 10.9756 48.9739 9.75993 49.6643C8.54432 50.3546 6.98937 49.9444 6.28748 48.7488C3.83384 44.5686 2.54218 39.8257 2.54199 34.9988C2.54199 30.1718 3.83384 25.4292 6.28748 21.2488C8.74127 17.0683 12.2711 13.5965 16.5212 11.1829C20.7713 8.76927 25.5926 7.49878 30.5003 7.49878C35.408 7.49878 40.2293 8.76927 44.4795 11.1829C48.7296 13.5965 52.2594 17.0683 54.7132 21.2488C57.1668 25.4292 58.4587 30.1718 58.4587 34.9988C58.4585 39.8257 57.1668 44.5686 54.7132 48.7488C54.0113 49.9444 52.4563 50.3546 51.2407 49.6643C50.0251 48.9739 49.608 47.4445 50.3099 46.2488C52.3176 42.8285 53.3752 38.9482 53.3753 34.9988Z" fill="black"/>
</svg>