<svg width="60" height="60" viewBox="0 0 60 60" fill="none" xmlns="http://www.w3.org/2000/svg">
<path d="M35 52.5C36.3807 52.5 37.5 53.6193 37.5 55C37.5 56.3807 36.3807 57.5 35 57.5H25C23.6193 57.5 22.5 56.3807 22.5 55C22.5 53.6193 23.6193 52.5 25 52.5H35ZM37.5 42.5C38.8807 42.5 40 43.6193 40 45C40 46.3807 38.8807 47.5 37.5 47.5H22.5C21.1193 47.5 20 46.3807 20 45C20 43.6193 21.1193 42.5 22.5 42.5H37.5ZM42.5 20C42.5 16.6848 41.1821 13.5063 38.8379 11.1621C36.4937 8.81791 33.3152 7.5 30 7.5C26.6848 7.5 23.5063 8.81791 21.1621 11.1621C18.8179 13.5063 17.5 16.6848 17.5 20C17.5 22.0106 17.8464 24.3112 20.5176 26.9824C22.4081 28.8729 24.3093 31.3005 24.9512 34.5093C25.2219 35.863 24.3444 37.1802 22.9907 37.4512C21.637 37.7219 20.3198 36.8444 20.0488 35.4907C19.6906 33.6997 18.5918 32.127 16.9824 30.5176C13.1536 26.6888 12.5 22.9894 12.5 20C12.5 15.3587 14.3426 10.9064 17.6245 7.62451C20.9064 4.34263 25.3587 2.5 30 2.5C34.6413 2.5 39.0936 4.34263 42.3755 7.62451C45.6574 10.9064 47.5 15.3587 47.5 20C47.5 23.8273 46.0398 27.7385 43.0151 30.5151L43.0176 30.5176C41.1828 32.3523 40.3136 33.6786 39.9512 35.4907C39.6802 36.8444 38.363 37.7219 37.0093 37.4512C35.6556 37.1802 34.7781 35.863 35.0488 34.5093C35.6865 31.3217 37.3173 29.1476 39.4824 26.9824L39.5776 26.8921C41.487 25.1737 42.5 22.632 42.5 20Z" fill="#C2410C"/>
</svg>
